<?xml version="1.0" encoding="UTF-8" standalone="no"?>
<svg width="165px" height="165px" viewBox="0 0 165 165" version="1.1" xmlns="http://www.w3.org/2000/svg" xmlns:xlink="http://www.w3.org/1999/xlink" xmlns:sketch="http://www.bohemiancoding.com/sketch/ns">
    <!-- Generator: Sketch 3.2.2 (9983) - http://www.bohemiancoding.com/sketch -->
    <title>Fill 1 + Group 6</title>
    <desc>Created with Sketch.</desc>
    <defs>
        <path id="path-1" d="M82.5,0 C128.063056,0 165,36.9357024 165,82.5 C165,128.064298 128.063056,165 82.5,165 C36.9369441,165 0,128.064298 0,82.5 C0,36.9357024 36.9369441,0 82.5,0 L82.5,0 Z"></path>
    </defs>
    <g id="Page-1" stroke="none" stroke-width="1" fill="none" fill-rule="evenodd" sketch:type="MSPage">
        <g id="Homepage-3" sketch:type="MSArtboardGroup" transform="translate(-141.000000, -90.000000)">
            <g id="LOGO" sketch:type="MSLayerGroup" transform="translate(132.000000, 90.000000)">
                <g id="Fill-1-+-Group-6" transform="translate(9.000000, 0.000000)">
                    <path d="M165,82.5 C165,128.064298 128.063056,165 82.5,165 C36.9369441,165 0,128.064298 0,82.5 C0,36.9357024 36.9369441,0 82.5,0 C128.063056,0 165,36.9357024 165,82.5 Z" id="Fill-1" fill="#9E7F64" sketch:type="MSShapeGroup"></path>
                    <g id="Group-6">
                        <mask id="mask-2" sketch:name="Clip 3" fill="white">
                            <use xlink:href="#path-1"></use>
                        </mask>
                        <g id="Clip-3"></g>
                        <path d="M21.9830831,68 L21.9830831,56.981591 L-13,56.981591 L-13,53.7351632 L21.9830831,53.7351632 L21.9830831,49 L26.0430777,49 L26.0430777,53.7351632 L28,53.7351632 L28,56.981591 L26.0430777,56.981591 L26.0430777,68 L21.9830831,68 L21.9830831,68 Z M30,67 L30,45 L33.917997,45 L33.917997,52.8282738 C33.917997,53.2595497 33.9082265,53.6957545 33.8789148,54.1208693 C33.8508244,54.5521452 33.8080782,54.9686345 33.7494548,55.375266 C34.5750676,54.4018147 35.4006805,53.6994511 36.2323999,53.2644785 C37.062898,52.8332026 37.9886592,52.6151003 39.012126,52.6151003 C40.0771177,52.6151003 40.9796737,52.7987006 41.7149088,53.1671334 C42.4489226,53.5355663 43.0205007,54.0875994 43.4235366,54.8232329 C43.6299398,55.2113812 43.7789409,55.6525148 43.8656547,56.1367761 C43.9572538,56.624734 44,57.386244 44,58.4274672 L44,67 L39.9965105,67 L39.9965105,60.1131399 C39.9965105,58.4028229 39.7986565,57.2691834 39.4053913,56.7220791 C39.012126,56.1749748 38.3342929,55.8989582 37.3792201,55.8989582 C36.8271831,55.8989582 36.3191137,56.0147866 35.8525691,56.2476756 C35.3921312,56.4805646 35.0025299,56.8095665 34.6959784,57.2359135 C34.4504929,57.5649154 34.2734014,57.943206 34.1671465,58.369553 C34.0572276,58.7959001 34.0047108,59.4452784 34.0047108,60.3164557 L34.0047108,67 L30,67 L30,67 Z M58,59 C57.8948189,58.011065 57.5909622,57.2614108 57.0907674,56.7551867 C56.5940787,56.2489627 55.9139073,56 55.0549279,56 C54.1959486,56 53.5075964,56.2489627 52.9922088,56.7551867 C52.4733152,57.2614108 52.1472536,58.011065 52,59 L58,59 L58,59 Z M61.9249555,61.4620144 L51.1401679,61.4620144 C51.3055202,62.4691908 51.6807428,63.2239545 52.2709234,63.7188815 C52.8560163,64.2199951 53.6497075,64.4686959 54.6558128,64.4686959 C55.4151615,64.4686959 56.0752989,64.3276417 56.6247774,64.040584 C57.1806156,63.7584756 57.6397863,63.3254145 58.0099211,62.7463499 L61.3703892,64.3808463 C60.5894175,65.607028 59.6405495,66.5164563 58.530145,67.1091314 C57.4146528,67.7030438 56.0905622,68 54.5604172,68 C52.2353091,68 50.3960824,67.3231873 49.0351056,65.9757486 C47.6804884,64.6283098 47,62.8144024 47,60.5340262 C47,58.3402623 47.7097431,56.5362534 49.1305011,55.1195249 C50.5499873,53.705271 52.3701348,53 54.5896718,53 C56.8753498,53 58.680234,53.6607275 60.0106843,54.9896065 C61.3347749,56.3122989 62,58.1212571 62,60.4065825 C62,60.5340262 61.9949122,60.6651819 61.9847367,60.8161346 C61.9745612,60.9621381 61.9554821,61.176194 61.9249555,61.4620144 L61.9249555,61.4620144 Z" id="Fill-2" fill="#FFFFFF" sketch:type="MSShapeGroup" mask="url(#mask-2)"></path>
                        <path d="M24.1099183,85 L20,85 L20,70.4856531 L24.1099183,70.4856531 L24.1099183,72.7584582 C24.7842507,71.8038544 25.5037057,71.1062099 26.26703,70.6616702 C27.0316076,70.2235546 27.9027248,70 28.8741144,70 C30.0510627,70 31.0074114,70.2479657 31.7419074,70.7374732 C32.4801635,71.2334047 33.0028338,71.9747323 33.3074114,72.9653105 C33.9629428,71.9862955 34.7024523,71.2436831 35.5347139,70.7477516 C36.3682289,70.2479657 37.279455,70 38.2696458,70 C39.2698638,70 40.1171662,70.1927195 40.8165668,70.5717345 C41.5109537,70.9507495 42.0536785,71.51606 42.4372207,72.2779443 C42.6402725,72.6929336 42.7831608,73.1567452 42.8708992,73.682227 C42.9548774,74.2025696 43,74.9952891 43,76.0616702 L43,85 L38.8900817,85 L38.8900817,77.8192719 C38.8900817,76.056531 38.7133515,74.8796574 38.3636512,74.2989293 C38.0126975,73.7182013 37.3972752,73.4252677 36.5249046,73.4252677 C35.4657766,73.4252677 34.7024523,73.8286938 34.2249046,74.6368308 C33.7461035,75.4501071 33.5104632,76.7683084 33.5104632,78.6068522 L33.5104632,85 L29.400545,85 L29.400545,77.8192719 C29.400545,76.1117773 29.2388556,74.9605996 28.9079564,74.3593148 C28.5833243,73.7528908 28.0167847,73.454818 27.2183651,73.454818 C26.1291553,73.454818 25.3357493,73.8595289 24.8481744,74.6779443 C24.3555858,75.4899358 24.1099183,76.7978587 24.1099183,78.6068522 L24.1099183,85 L24.1099183,85 Z M57,77.9894424 C57,76.7766414 56.6842905,75.8106236 56.0469595,75.0847905 C55.4108108,74.3642362 54.5594595,74 53.4858108,74 C52.4168919,74 51.566723,74.3589574 50.9388514,75.0795117 C50.3121622,75.7961069 50,76.7647641 50,77.9894424 C50,79.208842 50.3121622,80.1788189 50.9388514,80.9046519 C51.566723,81.6370835 52.4168919,82 53.4858108,82 C54.5511824,82 55.4013514,81.6370835 56.0386824,80.9046519 C56.6795608,80.1788189 57,79.208842 57,77.9894424 L57,77.9894424 Z M62,77.5049489 C62,79.6539921 61.2480583,81.439294 59.742907,82.8645661 C58.2364876,84.2886011 56.3331748,85 54.0202885,85 C51.6921858,85 49.7736567,84.2886011 48.2634332,82.8645661 C46.7519417,81.439294 46,79.6539921 46,77.5049489 C46,75.369515 46.7582818,73.5854503 48.2786495,72.1502804 C49.7977492,70.7151105 51.7124742,70 54.0202885,70 C56.3433191,70 58.2517039,70.7052128 59.7517832,72.1205873 C61.2531304,73.5359617 62,75.3311613 62,77.5049489 L62,77.5049489 Z M75,77.0336752 C75,75.7919792 74.6858345,74.8098883 74.0587307,74.0874024 C73.4316269,73.3612429 72.5873072,73 71.5220898,73 C70.4261921,73 69.5671459,73.3563447 68.9400421,74.0629114 C68.3129383,74.7756008 68,75.7576917 68,77.0042859 C68,78.2557784 68.3080295,79.2378693 68.9265428,79.9407623 C69.5438289,80.6485535 70.3967391,81 71.4926367,81 C72.6069425,81 73.4696704,80.6534517 74.0832749,79.9554569 C74.6956522,79.2623603 75,78.2851676 75,77.0336752 L75,77.0336752 Z M79,84.4357756 L75.0295951,84.4357756 L75.0882035,82.3962738 C74.5345415,83.2947604 73.8674038,83.9519751 73.0830493,84.3716877 C72.3036828,84.7914003 71.3534791,85 70.2361792,85 C68.3681935,85 66.8630809,84.2975469 65.7158534,82.9001803 C64.5736138,81.5015571 64,79.654319 64,77.3572092 C64,74.9570562 64.5636379,73.0897121 65.6871727,71.7463804 C66.8132014,70.4068186 68.3781694,69.735781 70.3770887,69.735781 C71.4021116,69.735781 72.3036828,69.9732831 73.0780614,70.442004 C73.8524399,70.9170081 74.583174,71.6621865 75.2602876,72.6850789 C75.2153961,72.3344807 75.1767395,71.9537234 75.1517998,71.5340108 C75.1268601,71.1142982 75.1168842,70.6342676 75.1168842,70.0964323 L75.1168842,62 L79,62 L79,84.4357756 L79,84.4357756 Z M92,76 C91.8947984,75.0115207 91.5920514,74.2608295 91.0905903,73.7562212 C90.5938048,73.2502304 89.9146698,73 89.0555231,73 C88.1963764,73 87.5067212,73.2502304 86.9924021,73.7562212 C86.4734074,74.2608295 86.1472823,75.0115207 86,76 L92,76 L92,76 Z M96.9249555,78.4625536 L86.1401679,78.4625536 C86.3042483,79.469647 86.6794709,80.2231112 87.2696515,80.7192346 C87.8547443,81.2203068 88.6497075,81.4689871 89.6545408,81.4689871 C90.4138896,81.4689871 91.074027,81.3279446 91.6247774,81.0409106 C92.1793437,80.7588255 92.6397863,80.3258001 93.0099211,79.7467832 L96.3691173,81.3811448 C95.5894175,82.6059881 94.6392775,83.5165787 93.5288731,84.1092049 C92.4146528,84.7030683 91.0892903,85 89.5591453,85 C87.2340371,85 85.3948105,84.3232432 84.0351056,82.9759155 C82.6792165,81.6285879 82,79.8148301 82,77.5334048 C82,75.3410591 82.7097431,73.5359617 84.1292292,72.1205873 C85.5499873,70.7052128 87.3701348,70 89.5896718,70 C91.8740778,70 93.6789621,70.6619103 95.0094124,71.9894424 C96.3347749,73.3120257 97,75.1220719 97,77.4072088 C97,77.5334048 96.9949122,77.6657869 96.9847367,77.8154899 C96.9745612,77.9614814 96.9542101,78.1767568 96.9249555,78.4625536 L96.9249555,78.4625536 Z M99,62 L103,62 L103,84 L99,84 L99,62 Z M106,82.0051762 L109.201438,80.4067045 C109.306757,80.9440473 109.596066,81.3704708 110.06556,81.6810451 C110.528709,81.9953167 111.107328,82.1506039 111.800148,82.1506039 C112.484086,82.1506039 113.018293,82.029825 113.406577,81.7870348 C113.79613,81.5504067 113.990272,81.2151836 113.990272,80.7887602 C113.990272,80.1158491 113.297452,79.5538575 111.915618,79.099088 C111.486729,78.9585901 111.147933,78.8415085 110.892884,78.7441459 C109.206514,78.1291595 108.039124,77.5092433 107.391985,76.8843973 C106.743576,76.2595514 106.418737,75.4892778 106.418737,74.5735765 C106.418737,73.2080355 106.966903,72.1074686 108.069578,71.2644811 C109.172253,70.4214937 110.623876,70 112.429523,70 C113.711113,70 114.829016,70.2526497 115.765465,70.751787 C116.709527,71.2509243 117.392196,71.9632734 117.821085,72.8789746 L114.768108,74.3603648 C114.60442,73.8378112 114.313842,73.4397338 113.905255,73.1685975 C113.496669,72.8974612 112.982764,72.761893 112.369885,72.761893 C111.755736,72.761893 111.262134,72.8826719 110.877657,73.1303919 C110.499524,73.3768795 110.309189,73.7010106 110.309189,74.099088 C110.309189,74.791718 111.251983,75.436283 113.142646,76.0364802 C113.367241,76.0993345 113.536005,76.1535617 113.656551,76.1917673 C115.227451,76.6909046 116.345353,77.2763125 117.007719,77.9405965 C117.671355,78.6085778 118,79.4564949 118,80.4892778 C118,81.8696081 117.451835,82.9640128 116.350428,83.7786542 C115.247753,84.5920631 113.760601,85 111.89024,85 C110.409432,85 109.146875,84.732561 108.100032,84.2001479 C107.046844,83.6615726 106.348948,82.930737 106,82.0051762 L106,82.0051762 Z" id="Fill-4" fill="#FFFFFF" sketch:type="MSShapeGroup" mask="url(#mask-2)"></path>
                        <path d="M33.1849427,89 L35.1918985,96.248473 C35.2311784,96.3947066 35.2790507,96.6437992 35.336743,97.0081438 C35.4005728,97.3675312 35.5110475,98.1086129 35.6706219,99.2351067 C35.7577741,98.7951669 35.8633388,98.3341595 35.9885434,97.8458883 C36.113748,97.3638134 36.2733224,96.8185359 36.4611293,96.2187306 L38.6178396,89 L43,89 L38.193126,103 L33.9091653,103 L31.8297872,95.751527 C31.7905074,95.6152076 31.7279051,95.4008144 31.6456628,95.1083473 C31.3314239,94.0128353 31.1055646,93.120563 30.9656301,92.4240949 C30.8404255,93.0722316 30.7189034,93.6621227 30.6035188,94.192529 C30.4832242,94.7291316 30.3580196,95.2260777 30.2279051,95.6932814 L28.0896072,103 L23.804419,103 L19,89 L23.3944354,89 L25.5180033,95.951049 C25.7070376,96.5793574 25.8604746,97.1444631 25.9819967,97.6562804 C26.1072013,98.1631407 26.207856,98.6836328 26.2950082,99.2202355 C26.3674304,98.6402585 26.4594926,98.0801098 26.5650573,97.5385501 C26.6669394,97.0031867 26.787234,96.4826945 26.9320786,95.9807914 L28.7843699,89 L33.1849427,89 L33.1849427,89 Z M55,95.9894424 C55,94.7753217 54.6842905,93.8106236 54.0469595,93.0847905 C53.4108108,92.3629165 52.5594595,92 51.4869932,92 C50.4168919,92 49.566723,92.3576377 48.9400338,93.0795117 C48.3121622,93.7947872 48,94.7647641 48,95.9894424 C48,97.208842 48.3121622,98.1788189 48.9400338,98.9046519 C49.566723,99.6370835 50.4168919,100 51.4869932,100 C52.55,100 53.4013514,99.6370835 54.0375,98.9046519 C54.6795608,98.1788189 55,97.208842 55,95.9894424 L55,95.9894424 Z M60,96.5049497 C60,98.6543475 59.2455821,100.439944 57.74055,101.865451 C56.2355179,103.289721 54.332356,104 52.0196529,104 C49.6917347,104 47.7733576,103.289721 46.2632538,101.865451 C44.7518821,100.439944 44,98.6543475 44,96.5049497 C44,94.3691635 44.7582217,92.5848045 46.277201,91.1493978 C47.7974483,89.7139911 49.7120216,89 52.0196529,89 C54.3424994,89 56.250733,89.7040917 57.7506934,91.1196997 C59.2519217,92.5353077 60,94.3308035 60,96.5049497 L60,96.5049497 Z M66.8999137,92.935926 C67.3066683,91.6155559 67.8884506,90.6297756 68.6489585,89.9797841 C69.4143966,89.3249957 70.3548626,89 71.4839147,89 C71.735363,89 72.1569087,89.0467706 72.7436213,89.1355148 C72.8594848,89.1547028 72.9420683,89.1690937 73,89.1786877 L72.3898681,93.4120267 C72.0891162,93.2897036 71.7846666,93.1949632 71.474054,93.1338016 C71.1683717,93.0714408 70.8442007,93.0438581 70.5052385,93.0438581 C69.2738814,93.0438581 68.3876495,93.3508652 67.8502404,93.96368 C67.3115987,94.5752955 67.0404289,95.6042488 67.0404289,97.0421449 L67.0404289,103 L63,103 L63,89.4521158 L66.9824972,89.4521158 L66.8999137,92.935926 L66.8999137,92.935926 Z M75,81 L79.14482,81 L79.14482,95.2358015 L84.4478631,89.079646 L89.4335328,89.079646 L83.6778218,95.2358015 L90,103 L84.871449,103 L79.14482,95.6227176 L79.14482,103 L75,103 L75,81 L75,81 Z M90,101.006163 L93.2014381,99.4075596 C93.305488,99.9449466 93.5947975,100.371405 94.064291,100.682005 C94.5287089,100.996302 95.106059,101.151602 95.800148,101.151602 C96.4840859,101.151602 97.0170244,101.030813 97.4065771,100.788003 C97.7948609,100.551356 97.9890029,100.216105 97.9890029,99.7896467 C97.9890029,99.1166804 97.2961827,98.5546426 95.9143492,98.0998357 C95.4854605,97.9593262 95.1466638,97.842235 94.8916147,97.746097 C93.2052448,97.1298274 92.0391245,96.5098603 91.3907159,95.884963 C90.7423073,95.2600657 90.4174685,94.4897288 90.4174685,93.5739523 C90.4174685,92.2070666 90.9669028,91.1076417 92.0683092,90.264585 C93.1709845,89.4215283 94.6226076,89 96.4282542,89 C97.7111135,89 98.8277466,89.251438 99.7654647,89.7518488 C100.708258,90.2497946 101.390927,90.9622021 101.819816,91.8792112 L98.7668394,93.3607231 C98.6031511,92.8381265 98.3138416,92.4400164 97.9052554,92.1688578 C97.4954002,91.8976993 96.9827641,91.76212 96.3686158,91.76212 C95.7557365,91.76212 95.260865,91.8829088 94.8776568,92.1294166 C94.4982553,92.3771569 94.3079201,92.7013147 94.3079201,93.0994248 C94.3079201,93.7921118 95.2507138,94.4367297 97.1413768,95.0369762 C97.3659723,95.0998357 97.5360051,95.1540674 97.6552818,95.1922761 C99.2261817,95.6914544 100.344084,96.2769104 101.007719,96.941249 C101.670086,97.6092851 102,98.457272 102,99.4901397 C102,100.870583 101.450566,101.965078 100.349159,102.779786 C99.2464841,103.593262 97.7606006,104 95.89024,104 C94.4081633,104 93.1468753,103.733772 92.0987628,103.201315 C91.0468436,102.662695 90.347679,101.9318 90,101.006163 L90,101.006163 Z M104,103 L104,81 L107.917997,81 L107.917997,88.8270416 C107.917997,89.2583175 107.909448,89.6945222 107.880136,90.1208693 C107.850824,90.5521452 107.808078,90.9686345 107.750676,91.375266 C108.575068,90.4018147 109.401902,89.6994511 110.2324,89.2632463 C111.062898,88.8319704 111.98988,88.6151003 113.012126,88.6151003 C114.077118,88.6151003 114.980895,88.7987006 115.714909,89.1671334 C116.450144,89.534334 117.021722,90.0875994 117.423537,90.8232329 C117.62994,91.210149 117.778941,91.6512826 117.865655,92.1355439 C117.957254,92.624734 118,93.3850118 118,94.426235 L118,103 L113.996511,103 L113.996511,96.1119077 C113.996511,94.4028229 113.799878,93.2691834 113.406613,92.7220791 C113.012126,92.1749748 112.335514,91.897726 111.37922,91.897726 C110.827183,91.897726 110.319114,92.0147866 109.85379,92.2476756 C109.392131,92.4793324 109.00253,92.8095665 108.695978,93.2346813 C108.450493,93.5649154 108.273401,93.9419738 108.168368,94.3683208 C108.057228,94.7946679 108.004711,95.4440462 108.004711,96.3152235 L108.004711,103 L104,103 L104,103 Z M133,95.9894424 C133,94.7753217 132.684291,93.8106236 132.046959,93.0847905 C131.410811,92.3629165 130.559459,92 129.486993,92 C128.416892,92 127.566723,92.3576377 126.938851,93.0795117 C126.31098,93.7947872 126,94.7647641 126,95.9894424 C126,97.208842 126.31098,98.1788189 126.938851,98.9046519 C127.566723,99.6370835 128.416892,100 129.486993,100 C130.551182,100 131.401351,99.6370835 132.038682,98.9046519 C132.679561,98.1788189 133,97.208842 133,95.9894424 L133,95.9894424 Z M137,96.5049497 C137,98.6543475 136.24685,100.439944 134.741818,101.865451 C133.236786,103.289721 131.332356,104 129.019653,104 C126.691735,104 124.773358,103.289721 123.263254,101.865451 C121.751882,100.439944 121,98.6543475 121,96.5049497 C121,94.3691635 121.756954,92.5848045 123.277201,91.1493978 C124.797448,89.7139911 126.712022,89 129.019653,89 C131.342499,89 133.250733,89.7040917 134.751961,91.1196997 C136.251922,92.5353077 137,94.3308035 137,96.5049497 L137,96.5049497 Z M144,96.0336752 C144,97.2851676 144.308878,98.2623603 144.925407,98.9554569 C145.541937,99.6534517 146.39993,100 147.498161,100 C148.601296,100 149.459289,99.6534517 150.075819,98.9554569 C150.692348,98.2623603 151,97.2851676 151,96.0336752 C151,94.7821828 150.687445,93.8000918 150.06111,93.077606 C149.434775,92.3612429 148.571879,92 147.474873,92 C146.409736,92 145.565225,92.3612429 144.940116,93.0874024 C144.31378,93.8098883 144,94.7919792 144,96.0336752 L144,96.0336752 Z M140,147 L140,89.4639705 L143.915863,89.4639705 L143.915863,91.7567476 C144.450865,90.8324987 145.108081,90.1408504 145.891254,89.6854948 C146.671932,89.2264471 147.578567,89 148.613651,89 C150.612737,89 152.176588,89.6522662 153.303957,90.9641827 C154.436315,92.2699457 155,94.0938296 155,96.4395264 C155,98.6941521 154.431327,100.50819 153.290239,101.873027 C152.152893,103.236632 150.656385,103.918435 148.799468,103.918435 C147.67584,103.918435 146.725557,103.715371 145.946126,103.305551 C145.166694,102.893269 144.499501,102.244695 143.945793,101.368443 C143.99443,101.71796 144.029348,102.099474 144.05429,102.511755 C144.077985,102.921575 144.087961,103.391699 144.087961,103.918435 L144.087961,147 L140,147 L140,147 Z" id="Fill-5" fill="#FFFFFF" sketch:type="MSShapeGroup" mask="url(#mask-2)"></path>
                    </g>
                </g>
            </g>
        </g>
    </g>
</svg>